<svg xmlns="http://www.w3.org/2000/svg" width="106.222" height="64.041" viewBox="0 0 106.222 64.041">
  <g id="undraw_forgot_password_re_hxwm" transform="translate(0 -19.179)">
    <path id="Path_14094" data-name="Path 14094" d="M431.227,410.345c3.64-6.4,10.584-11.32,17.935-10.847a33.938,33.938,0,0,0-8.926,21.523c-.121,3.087.066,6.533-1.983,8.844a7.587,7.587,0,0,1-5.141,2.281,22.529,22.529,0,0,1-5.724-.545l-.459.141C426.755,424.378,427.587,416.748,431.227,410.345Z" transform="translate(-393.125 -357.09)" fill="#f0f0f0"/>
    <path id="Path_14095" data-name="Path 14095" d="M449.145,398.555a29.008,29.008,0,0,0-12.916,12.317,12.493,12.493,0,0,0-1.367,3.667,7.165,7.165,0,0,0,.373,3.752,14.83,14.83,0,0,1,1.071,3.426,4.387,4.387,0,0,1-1.174,3.39,11.4,11.4,0,0,1-3.776,2.512,11.192,11.192,0,0,0-4.2,2.794c-.131.163-.376-.049-.246-.212,1.877-2.343,5.09-2.784,7.318-4.671A4.443,4.443,0,0,0,436,422.045a11.505,11.505,0,0,0-1.021-3.5,7.646,7.646,0,0,1-.5-3.655,11.549,11.549,0,0,1,1.221-3.706,28.142,28.142,0,0,1,5.175-7.112,29.522,29.522,0,0,1,8.163-5.824C449.228,398.158,449.332,398.465,449.145,398.555Z" transform="translate(-393.098 -355.993)" fill="#fff"/>
    <path id="Path_14096" data-name="Path 14096" d="M503.908,451.181a4.352,4.352,0,0,1-1.313-5.48c.1-.186.389-.047.293.139a4.03,4.03,0,0,0,1.232,5.1C504.289,451.058,504.076,451.3,503.908,451.181Z" transform="translate(-459.943 -398.084)" fill="#fff"/>
    <path id="Path_14097" data-name="Path 14097" d="M498.08,548.469a8.388,8.388,0,0,0,5.311-3.027c.131-.163.377.05.246.212a8.726,8.726,0,0,1-5.533,3.139C497.9,548.823,497.874,548.5,498.08,548.469Z" transform="translate(-456.223 -486.713)" fill="#fff"/>
    <path id="Path_14098" data-name="Path 14098" d="M572.789,432.374a2.464,2.464,0,0,0,2.2.785c.207-.032.229.292.024.324a2.761,2.761,0,0,1-2.438-.863.168.168,0,0,1-.017-.229A.163.163,0,0,1,572.789,432.374Z" transform="translate(-522.48 -386.288)" fill="#fff"/>
    <path id="Path_14099" data-name="Path 14099" d="M461.532,548.558c-.129.024-.257.048-.387.074a32.45,32.45,0,0,0-5.072,1.4c-.128.045-.258.092-.384.14a34.2,34.2,0,0,0-10.757,6.546,33.21,33.21,0,0,0-3.484,3.651c-1.474,1.8-2.928,3.87-4.854,5.044a5.7,5.7,0,0,1-.62.336l-11.093-4.6c-.02-.023-.041-.044-.061-.067l-.451-.163c.05-.071.1-.144.154-.215.029-.041.061-.082.09-.123s.04-.055.057-.08l.019-.025c.017-.026.035-.048.05-.071q.449-.61.908-1.216s0,0,0,0a48.834,48.834,0,0,1,7.93-8.392c.09-.073.18-.148.275-.218a31.71,31.71,0,0,1,4.284-2.9,28.037,28.037,0,0,1,2.541-1.257,23.3,23.3,0,0,1,7.059-1.8,18.5,18.5,0,0,1,13.509,3.7C461.346,548.4,461.438,548.478,461.532,548.558Z" transform="translate(-390.87 -485.949)" fill="#f0f0f0"/>
    <path id="Path_14100" data-name="Path 14100" d="M462.676,574.822a29.007,29.007,0,0,0-17.728,2.058,12.49,12.49,0,0,0-3.3,2.1,7.165,7.165,0,0,0-1.961,3.22,14.827,14.827,0,0,1-1.208,3.38,4.387,4.387,0,0,1-2.979,2,11.4,11.4,0,0,1-4.528-.268,11.191,11.191,0,0,0-5.032-.3c-.2.052-.271-.266-.068-.317,2.909-.741,5.74.842,8.655.676a4.443,4.443,0,0,0,3.513-1.717,11.506,11.506,0,0,0,1.292-3.408,7.645,7.645,0,0,1,1.8-3.22,11.55,11.55,0,0,1,3.207-2.224,28.14,28.14,0,0,1,8.414-2.563,29.523,29.523,0,0,1,10.024.264C462.982,574.555,462.879,574.863,462.676,574.822Z" transform="translate(-392.098 -512.083)" fill="#fff"/>
    <path id="Path_14101" data-name="Path 14101" d="M611.747,550.768A4.352,4.352,0,0,1,614,545.6c.188-.091.338.2.15.288a4.03,4.03,0,0,0-2.084,4.81C612.126,550.9,611.808,550.967,611.747,550.768Z" transform="translate(-557.159 -486.891)" fill="#fff"/>
    <path id="Path_14102" data-name="Path 14102" d="M549.463,642.379a8.388,8.388,0,0,0,6.063.78c.2-.051.271.267.068.317a8.725,8.725,0,0,1-6.307-.825C549.1,642.551,549.281,642.279,549.463,642.379Z" transform="translate(-501.771 -572.858)" fill="#fff"/>
    <path id="Path_14103" data-name="Path 14103" d="M693.85,575.057a2.464,2.464,0,0,0,1.285,1.952c.185.1.007.371-.176.273a2.76,2.76,0,0,1-1.427-2.157.168.168,0,0,1,.124-.193A.163.163,0,0,1,693.85,575.057Z" transform="translate(-629.975 -512.96)" fill="#fff"/>
    <path id="Path_14104" data-name="Path 14104" d="M173.913,495.1c-1.554-7.512-3.5-10.016-3.5-10.016l-.742-.575-.892-.693,0-.089-.212-.072-.05-.039-.081-.063-.013.014-.028.029-4.037-1.372-5.122-1.74-2.372-3.083a4.1,4.1,0,0,0-3.282-1.6l-7.574.056a4.1,4.1,0,0,0-2.759,1.094l-4.978,4.618-7.757,3.7-.013-.013-.081.058-1.2.573.049.257-.742.535s-1.942,2.33-3.5,9.32a66.4,66.4,0,0,0-.66,10.294,1.794,1.794,0,0,0,1.794,1.821h46.605a1.795,1.795,0,0,0,1.794-1.819A77.569,77.569,0,0,0,173.913,495.1Z" transform="translate(-124.382 -424.904)" fill="#3f3d56"/>
    <path id="Path_14105" data-name="Path 14105" d="M567.2,191.732a6.078,6.078,0,1,0,0,12.156h45.3a6.078,6.078,0,1,0,0-12.156Z" transform="translate(-512.349 -172.552)" fill="#e5e5e5"/>
    <path id="Path_14106" data-name="Path 14106" d="M576.982,202.747a4.848,4.848,0,1,0,0,9.7h45.3a4.848,4.848,0,1,0,0-9.7Z" transform="translate(-522.134 -182.338)" fill="#fff"/>
    <circle id="ab6171fa-7d69-4734-b81c-8dff60f9761b" cx="9.923" cy="9.923" r="9.923" transform="translate(16.69 28.209)" fill="#9e616a"/>
    <path id="Path_14107" data-name="Path 14107" d="M338.963,443.738l-.127-.281.049,0Z" transform="translate(-314.889 -396.168)" fill="#2f2e41"/>
    <path id="Path_14108" data-name="Path 14108" d="M240.437,239.222a2.762,2.762,0,0,1,1.73-.748c.642.021,1.292.6,1.159,1.228a10.2,10.2,0,0,1,12.272-4.6,5.111,5.111,0,0,1,3.525,3.339,3.007,3.007,0,0,0,.379,1.233,1.407,1.407,0,0,0,1.5.379l.016,0a.469.469,0,0,1,.566.662l-.451.842a3.616,3.616,0,0,0,1.723-.037.468.468,0,0,1,.5.729,8.165,8.165,0,0,1-6.511,3.347c-1.8-.011-3.625-.632-5.379-.218a4.673,4.673,0,0,0-3.143,6.559,1.524,1.524,0,0,0-2.133.128,2.925,2.925,0,0,0-.639,2.238,10.384,10.384,0,0,0,1.066,3.485,10.42,10.42,0,0,1-6.177-18.561Z" transform="translate(-224.023 -210.561)" fill="#2f2e41"/>
    <path id="Path_14109" data-name="Path 14109" d="M87.464,495.253,90.247,510.4l1.67.145Z" transform="translate(-77.697 -427.321)" opacity="0.2"/>
    <path id="Path_14110" data-name="Path 14110" d="M326.581,485.026,323.8,501.3l-1.67.156Z" transform="translate(-286.157 -418.236)" opacity="0.2"/>
    <path id="Path_14112" data-name="Path 14112" d="M631.727,268.668h-9.012a.217.217,0,1,1,0-.434h9.012a.217.217,0,0,1,0,.434Z" transform="translate(-566.875 -240.512)" fill="#5e81f4"/>
    <path id="Path_14113" data-name="Path 14113" d="M734.109,269.316H725.1a.217.217,0,0,1,0-.434h9.012a.217.217,0,0,1,0,.434Z" transform="translate(-657.824 -241.088)" fill="#5e81f4"/>
    <path id="Path_14114" data-name="Path 14114" d="M836.49,269.964h-9.012a.217.217,0,1,1,0-.434h9.012a.217.217,0,0,1,0,.434Z" transform="translate(-748.773 -241.663)" fill="#5e81f4"/>
    <path id="Path_14115" data-name="Path 14115" d="M938.872,270.612H929.86a.217.217,0,1,1,0-.434h9.012a.217.217,0,0,1,0,.434Z" transform="translate(-839.722 -242.239)" fill="#5e81f4"/>
    <circle id="Ellipse_12" data-name="Ellipse 12" cx="1.675" cy="1.675" r="1.675" transform="translate(58.652 22.808)" fill="#5e81f4"/>
    <circle id="Ellipse_13" data-name="Ellipse 13" cx="1.675" cy="1.675" r="1.675" transform="translate(70.153 22.808)" fill="#5e81f4"/>
    <circle id="Ellipse_14" data-name="Ellipse 14" cx="1.675" cy="1.675" r="1.675" transform="translate(81.655 22.808)" fill="#5e81f4"/>
    <circle id="Ellipse_15" data-name="Ellipse 15" cx="1.675" cy="1.675" r="1.675" transform="translate(93.157 22.808)" fill="#5e81f4"/>
  </g>
</svg>
