<svg xmlns="http://www.w3.org/2000/svg" width="106" height="101" viewBox="0 0 106 101">
  <g id="_x38_0_x2C__Antivirus_x2C__Protection_x2C__Shield_x2C__Failed" transform="translate(-42.5 -52.5)">
    <g id="Group_6395" data-name="Group 6395" transform="translate(42.5 52.5)">
      <ellipse id="Ellipse_34" data-name="Ellipse 34" cx="7" cy="7.5" rx="7" ry="7.5" transform="translate(90 85)" fill="#ff808b"/>
      <path id="Path_14212" data-name="Path 14212" d="M72.362,82.5A4.862,4.862,0,1,1,67.5,87.362,4.861,4.861,0,0,1,72.362,82.5Z" transform="translate(-61.422 -75.206)" fill="#ff808b"/>
      <path id="Path_14213" data-name="Path 14213" d="M182.27,147.276A37.842,37.842,0,0,1,166.8,181.416l-22.263,16.141-22.26-16.141a37.839,37.839,0,0,1-15.468-34.139l1.293-21.976c6.516,0,11.9-6.294,12.287-12.8h48.3c.382,6.506,5.769,12.8,12.285,12.8Z" transform="translate(-91.054 -97.913)" fill="#ff808b"/>
      <path id="Path_14214" data-name="Path 14214" d="M190.6,172.5a23.1,23.1,0,1,1-23.1,23.1A23.1,23.1,0,0,1,190.6,172.5Z" transform="translate(-137.11 -143.325)" fill="#fff"/>
      <path id="Path_14215" data-name="Path 14215" d="M239.952,228.46l-5.821,5.82,5.821,5.82-4.851,4.85-5.82-5.82-5.82,5.82-4.851-4.85,5.82-5.82-5.82-5.82,4.851-4.85,5.82,5.82,5.82-5.82Z" transform="translate(-175.793 -182.009)" fill="#ff808b"/>
      <circle id="Ellipse_35" data-name="Ellipse 35" cx="2" cy="2" r="2" transform="translate(102 11)" fill="#f4be5e"/>
      <ellipse id="Ellipse_36" data-name="Ellipse 36" cx="2" cy="1.5" rx="2" ry="1.5" transform="translate(96 60)" fill="#f4be5e"/>
      <circle id="Ellipse_37" data-name="Ellipse 37" cx="2" cy="2" r="2" transform="translate(73 97)" fill="#f4be5e"/>
      <ellipse id="Ellipse_38" data-name="Ellipse 38" cx="1.5" cy="2" rx="1.5" ry="2" transform="translate(32)" fill="#f4be5e"/>
      <ellipse id="Ellipse_39" data-name="Ellipse 39" cx="2" cy="1.5" rx="2" ry="1.5" transform="translate(13 94)" fill="#f4be5e"/>
      <ellipse id="Ellipse_40" data-name="Ellipse 40" cx="2" cy="1.5" rx="2" ry="1.5" transform="translate(0 50)" fill="#f4be5e"/>
    </g>
  </g>
</svg>
